<?xml version="1.0" encoding="UTF-8" standalone="no"?>
<!-- Created with Inkscape (http://www.inkscape.org/) -->

<svg
   width="297mm"
   height="210mm"
   viewBox="0 0 297 210"
   version="1.1"
   id="svg5"
   inkscape:version="1.1.2 (0a00cf5339, 2022-02-04)"
   sodipodi:docname="icon.svg"
   xmlns:inkscape="http://www.inkscape.org/namespaces/inkscape"
   xmlns:sodipodi="http://sodipodi.sourceforge.net/DTD/sodipodi-0.dtd"
   xmlns:xlink="http://www.w3.org/1999/xlink"
   xmlns="http://www.w3.org/2000/svg"
   xmlns:svg="http://www.w3.org/2000/svg">
  <sodipodi:namedview
     id="namedview7"
     pagecolor="#ffffff"
     bordercolor="#666666"
     borderopacity="1.0"
     inkscape:pageshadow="2"
     inkscape:pageopacity="0.0"
     inkscape:pagecheckerboard="0"
     inkscape:document-units="mm"
     showgrid="false"
     inkscape:zoom="0.87289337"
     inkscape:cx="485.16808"
     inkscape:cy="422.73205"
     inkscape:window-width="1920"
     inkscape:window-height="1011"
     inkscape:window-x="0"
     inkscape:window-y="32"
     inkscape:window-maximized="1"
     inkscape:current-layer="layer1" />
  <defs
     id="defs2">
    <radialGradient
       id="rg1"
       xlink:href="#lg"
       gradientUnits="userSpaceOnUse"
       cx="842.31"
       cy="103.66"
       r="25.858999"
       gradientTransform="matrix(0.185743,0.047185,-0.04532,0.186354,233.79812,198.76959)" />
    <linearGradient
       id="lg">
      <stop
         stop-color="#fff"
         offset="0"
         id="stop7" />
      <stop
         stop-color="#f15770"
         offset="1"
         id="stop9" />
    </linearGradient>
    <radialGradient
       id="rg2"
       xlink:href="#lg"
       gradientUnits="userSpaceOnUse"
       cx="651.52002"
       cy="550.46002"
       r="25.858999"
       gradientTransform="matrix(-0.176418,-0.070669,0.065152,-0.163915,430.54435,377.87561)" />
    <radialGradient
       id="rg3"
       xlink:href="#lg"
       gradientUnits="userSpaceOnUse"
       cx="380.84"
       cy="740.37"
       r="25.858999"
       gradientTransform="matrix(0.098907,0.003695,-0.004498,0.194304,442.36222,123.30418)" />
  </defs>
  <g
     inkscape:label="Layer 1"
     inkscape:groupmode="layer"
     id="layer1">
    <g
       id="g29589"
       inkscape:export-filename="/home/gabriele/STORAGE/Progetti/github/SirGridsAlot/images/icon.png"
       inkscape:export-xdpi="96"
       inkscape:export-ydpi="96">
      <g
         id="g10430"
         transform="matrix(0.77007162,0,0,0.77007162,65.604811,33.749921)"
         inkscape:export-filename="/home/gabriele/STORAGE/Progetti/github/SirGridsAlot/images/icon.png"
         inkscape:export-xdpi="96"
         inkscape:export-ydpi="96">
        <g
           id="g3903"
           transform="translate(57.132045,5.2174481)">
          <g
             id="g461"
             transform="rotate(1.8082267,-816.3391,255.25432)"
             style="fill:#37e1e5;fill-opacity:1;stroke:#000000;stroke-opacity:1">
            <path
               sodipodi:type="star"
               style="fill:#37e1e5;fill-opacity:1;fill-rule:evenodd;stroke:#000000;stroke-opacity:1"
               id="path217"
               inkscape:flatsided="true"
               sodipodi:sides="6"
               sodipodi:cx="-17.363537"
               sodipodi:cy="98.291733"
               sodipodi:r1="96.124954"
               sodipodi:r2="83.246651"
               sodipodi:arg1="1.014851"
               sodipodi:arg2="1.5384497"
               inkscape:rounded="0"
               inkscape:randomized="0"
               d="M 33.366071,179.94045 -62.7086,183.04922 -113.43821,101.4005 -68.093145,16.643011 27.981526,13.534243 78.711134,95.182964 Z"
               transform="matrix(0.26458333,0,0,0.26458333,46.583063,32.678011)" />
            <path
               sodipodi:type="star"
               style="fill:#37e1e5;fill-opacity:1;fill-rule:evenodd;stroke:#000000;stroke-opacity:1"
               id="path217-5"
               inkscape:flatsided="true"
               sodipodi:sides="6"
               sodipodi:cx="-17.363537"
               sodipodi:cy="98.291733"
               sodipodi:r1="96.124954"
               sodipodi:r2="83.246651"
               sodipodi:arg1="1.014851"
               sodipodi:arg2="1.5384497"
               inkscape:rounded="0"
               inkscape:randomized="0"
               transform="matrix(0.26458333,0,0,0.26458333,84.000367,9.4300637)"
               d="M 33.366071,179.94045 -62.7086,183.04922 -113.43821,101.4005 -68.093145,16.643011 27.981526,13.534243 78.711134,95.182964 Z" />
            <path
               sodipodi:type="star"
               style="fill:#37e1e5;fill-opacity:1;fill-rule:evenodd;stroke:#000000;stroke-opacity:1"
               id="path217-5-8"
               inkscape:flatsided="true"
               sodipodi:sides="6"
               sodipodi:cx="-17.363537"
               sodipodi:cy="98.291733"
               sodipodi:r1="96.124954"
               sodipodi:r2="83.246651"
               sodipodi:arg1="1.014851"
               sodipodi:arg2="1.5384497"
               inkscape:rounded="0"
               inkscape:randomized="0"
               transform="matrix(0.26458333,0,0,0.26458333,85.425028,53.458373)"
               d="M 33.366071,179.94045 -62.7086,183.04922 -113.43821,101.4005 -68.093145,16.643011 27.981526,13.534243 78.711134,95.182964 Z" />
            <path
               sodipodi:type="star"
               style="fill:#37e1e5;fill-opacity:1;fill-rule:evenodd;stroke:#000000;stroke-opacity:1"
               id="path217-1"
               inkscape:flatsided="true"
               sodipodi:sides="6"
               sodipodi:cx="-17.363537"
               sodipodi:cy="98.291733"
               sodipodi:r1="96.124954"
               sodipodi:r2="83.246651"
               sodipodi:arg1="1.014851"
               sodipodi:arg2="1.5384497"
               inkscape:rounded="0"
               inkscape:randomized="0"
               transform="matrix(0.26458333,0,0,0.26458333,122.84233,30.210426)"
               d="M 33.366071,179.94045 -62.7086,183.04922 -113.43821,101.4005 -68.093145,16.643011 27.981526,13.534243 78.711134,95.182964 Z" />
            <path
               sodipodi:type="star"
               style="fill:#37e1e5;fill-opacity:1;fill-rule:evenodd;stroke:#000000;stroke-opacity:1"
               id="path217-5-3"
               inkscape:flatsided="true"
               sodipodi:sides="6"
               sodipodi:cx="-17.363537"
               sodipodi:cy="98.291733"
               sodipodi:r1="96.124954"
               sodipodi:r2="83.246651"
               sodipodi:arg1="1.014851"
               sodipodi:arg2="1.5384497"
               inkscape:rounded="0"
               inkscape:randomized="0"
               transform="matrix(0.26458333,0,0,0.26458333,160.25963,6.9624789)"
               d="M 33.366071,179.94045 -62.7086,183.04922 -113.43821,101.4005 -68.093145,16.643011 27.981526,13.534243 78.711134,95.182964 Z" />
            <path
               sodipodi:type="star"
               style="fill:#37e1e5;fill-opacity:1;fill-rule:evenodd;stroke:#000000;stroke-opacity:1"
               id="path217-5-8-7"
               inkscape:flatsided="true"
               sodipodi:sides="6"
               sodipodi:cx="-17.363537"
               sodipodi:cy="98.291733"
               sodipodi:r1="96.124954"
               sodipodi:r2="83.246651"
               sodipodi:arg1="1.014851"
               sodipodi:arg2="1.5384497"
               inkscape:rounded="0"
               inkscape:randomized="0"
               transform="matrix(0.26458333,0,0,0.26458333,161.68429,50.990788)"
               d="M 33.366071,179.94045 -62.7086,183.04922 -113.43821,101.4005 -68.093145,16.643011 27.981526,13.534243 78.711134,95.182964 Z" />
            <path
               sodipodi:type="star"
               style="fill:#37e1e5;fill-opacity:1;fill-rule:evenodd;stroke:#000000;stroke-opacity:1"
               id="path217-4"
               inkscape:flatsided="true"
               sodipodi:sides="6"
               sodipodi:cx="-17.363537"
               sodipodi:cy="98.291733"
               sodipodi:r1="96.124954"
               sodipodi:r2="83.246651"
               sodipodi:arg1="1.014851"
               sodipodi:arg2="1.5384497"
               inkscape:rounded="0"
               inkscape:randomized="0"
               transform="matrix(0.26458333,0,0,0.26458333,86.84969,97.486682)"
               d="M 33.366071,179.94045 -62.7086,183.04922 -113.43821,101.4005 -68.093145,16.643011 27.981526,13.534243 78.711134,95.182964 Z" />
            <path
               sodipodi:type="star"
               style="fill:#37e1e5;fill-opacity:1;fill-rule:evenodd;stroke:#000000;stroke-opacity:1"
               id="path217-5-85"
               inkscape:flatsided="true"
               sodipodi:sides="6"
               sodipodi:cx="-17.363537"
               sodipodi:cy="98.291733"
               sodipodi:r1="96.124954"
               sodipodi:r2="83.246651"
               sodipodi:arg1="1.014851"
               sodipodi:arg2="1.5384497"
               inkscape:rounded="0"
               inkscape:randomized="0"
               transform="matrix(0.26458333,0,0,0.26458333,124.26699,74.238735)"
               d="M 33.366071,179.94045 -62.7086,183.04922 -113.43821,101.4005 -68.093145,16.643011 27.981526,13.534243 78.711134,95.182964 Z" />
            <path
               sodipodi:type="star"
               style="fill:#37e1e5;fill-opacity:1;fill-rule:evenodd;stroke:#000000;stroke-opacity:1"
               id="path217-5-8-9"
               inkscape:flatsided="true"
               sodipodi:sides="6"
               sodipodi:cx="-17.363537"
               sodipodi:cy="98.291733"
               sodipodi:r1="96.124954"
               sodipodi:r2="83.246651"
               sodipodi:arg1="1.014851"
               sodipodi:arg2="1.5384497"
               inkscape:rounded="0"
               inkscape:randomized="0"
               transform="matrix(0.26458333,0,0,0.26458333,125.69165,118.26705)"
               d="M 33.366071,179.94045 -62.7086,183.04922 -113.43821,101.4005 -68.093145,16.643011 27.981526,13.534243 78.711134,95.182964 Z" />
            <path
               sodipodi:type="star"
               style="fill:#37e1e5;fill-opacity:1;fill-rule:evenodd;stroke:#000000;stroke-opacity:1"
               id="path217-1-1"
               inkscape:flatsided="true"
               sodipodi:sides="6"
               sodipodi:cx="-17.363537"
               sodipodi:cy="98.291733"
               sodipodi:r1="96.124954"
               sodipodi:r2="83.246651"
               sodipodi:arg1="1.014851"
               sodipodi:arg2="1.5384497"
               inkscape:rounded="0"
               inkscape:randomized="0"
               transform="matrix(0.26458333,0,0,0.26458333,163.10895,95.019097)"
               d="M 33.366071,179.94045 -62.7086,183.04922 -113.43821,101.4005 -68.093145,16.643011 27.981526,13.534243 78.711134,95.182964 Z" />
            <path
               sodipodi:type="star"
               style="fill:#37e1e5;fill-opacity:1;fill-rule:evenodd;stroke:#000000;stroke-opacity:1"
               id="path217-5-3-6"
               inkscape:flatsided="true"
               sodipodi:sides="6"
               sodipodi:cx="-17.363537"
               sodipodi:cy="98.291733"
               sodipodi:r1="96.124954"
               sodipodi:r2="83.246651"
               sodipodi:arg1="1.014851"
               sodipodi:arg2="1.5384497"
               inkscape:rounded="0"
               inkscape:randomized="0"
               transform="matrix(0.26458333,0,0,0.26458333,200.52625,71.77115)"
               d="M 33.366071,179.94045 -62.7086,183.04922 -113.43821,101.4005 -68.093145,16.643011 27.981526,13.534243 78.711134,95.182964 Z" />
            <path
               sodipodi:type="star"
               style="fill:#37e1e5;fill-opacity:1;fill-rule:evenodd;stroke:#000000;stroke-opacity:1"
               id="path217-5-8-7-6"
               inkscape:flatsided="true"
               sodipodi:sides="6"
               sodipodi:cx="-17.363537"
               sodipodi:cy="98.291733"
               sodipodi:r1="96.124954"
               sodipodi:r2="83.246651"
               sodipodi:arg1="1.014851"
               sodipodi:arg2="1.5384497"
               inkscape:rounded="0"
               inkscape:randomized="0"
               transform="matrix(0.26458333,0,0,0.26458333,201.95091,115.79946)"
               d="M 33.366071,179.94045 -62.7086,183.04922 -113.43821,101.4005 -68.093145,16.643011 27.981526,13.534243 78.711134,95.182964 Z" />
          </g>
          <g
             style="fill:#ffff00;fill-opacity:1"
             id="g3527"
             transform="matrix(0.24922439,0.12389258,-0.12389258,0.24922439,156.48776,-3.6020738)">
            <path
               d="m 211.667,238.5 c 0,4.142 -3.358,7.5 -7.5,7.5 h -163 c -4.142,0 -7.5,-3.358 -7.5,-7.5 v -16 c 0,-4.142 3.358,-7.5 7.5,-7.5 h 163 c 4.142,0 7.5,3.358 7.5,7.5 z M 241.748,0.74 c -3.043,-1.458 -6.683,-0.71 -8.899,1.83 L 173.357,70.769 129.277,3.394 C 127.891,1.277 125.53,0 123,0 c -2.53,0 -4.891,1.276 -6.276,3.394 L 72.627,70.795 13.137,3.012 C 10.914,0.481 7.277,-0.26 4.24,1.204 1.206,2.669 -0.48,5.977 0.12,9.293 l 33,182.541 c 0.645,3.57 3.752,6.166 7.38,6.166 h 165 c 3.629,0 6.737,-2.598 7.381,-6.169 l 33,-183 C 246.48,5.512 244.788,2.2 241.748,0.74 Z"
               id="path3519"
               style="fill:#ffff00;fill-opacity:1" />
          </g>
        </g>
        <g
           transform="matrix(0.49376698,-0.42544298,0.42544298,0.49376698,-270.20586,73.282322)"
           style="clip-rule:evenodd;fill:#ffff00;fill-opacity:1;fill-rule:evenodd;stroke:none;stroke-width:0.510884;stroke-miterlimit:4;stroke-dasharray:none;stroke-opacity:1;image-rendering:optimizeQuality;shape-rendering:geometricPrecision;text-rendering:geometricPrecision"
           id="g4326">
          <path
             inkscape:connector-curvature="0"
             id="path4318"
             d="m 449.39554,275.00669 -13.5295,9.87402 1.5248,3.22913 c 0,0 -2.47677,0.85039 -3.59764,3.04606 -1.1185,2.19921 0.73228,5.30315 0.73228,5.30315 0,0 -12.8622,-1.12205 -14.8701,0.18307 -1.8189,1.17874 0.77008,10.0878 -0.42756,17.6126 -1.6689,10.4882 -5.80394,9.60709 -5.97283,11.6398 -0.16417,1.9748 1.58504,5.05866 1.58504,5.05866 0,0 -2.41181,0.75945 -2.92559,1.76811 -0.82677,1.62165 0.57638,4.61339 -0.42637,6.5811 -5.59488,10.9795 -13.8567,27.1854 -19.3193,37.9087 -0.763,1.49646 -2.81339,2.06811 -3.84094,4.08307 -0.94725,1.85906 -0.18189,4.56969 -0.18189,4.56969 0,0 -3.62008,0.21614 -4.87559,2.68228 -1.33465,2.6185 -0.54922,6.15472 -0.54922,6.15472 0,0 -2.28898,0.29291 -3.41457,2.49921 -1.20118,2.35866 0.83386,3.59528 0.30827,4.63228 -7.34409,14.4071 -15.9933,31.3902 -21.2705,41.7472 -1.94173,3.80787 -8.73543,4.57087 -12.678,12.3106 -3.82559,7.50709 1.64528,13.0417 1.64528,13.0417 0,0 -5.6811,0.51378 -7.19055,3.4748 -1.5378,3.01772 -0.32126,7.60039 3.77835,9.68976 4.09961,2.08819 8.57953,0.39803 10.1185,-2.61969 1.50827,-2.96102 -1.5248,-7.86142 -1.5248,-7.86142 0,0 7.6937,1.10787 11.5181,-6.40039 3.9437,-7.73976 0.6189,-13.6205 2.55945,-17.4295 5.27835,-10.3571 13.9287,-27.339 21.2705,-41.7472 0.52914,-1.03701 2.69882,-0.13937 3.9,-2.49803 1.12323,-2.2063 0,-4.20472 0,-4.20472 0,0 3.35906,-1.46457 4.6937,-4.08425 1.25669,-2.46496 -0.67086,-5.54528 -0.67086,-5.54528 0,0 2.64684,-0.94252 3.59528,-2.80276 1.02638,-2.01496 0.27165,-3.98858 1.03465,-5.4874 5.46378,-10.7209 13.7268,-26.928 19.3205,-37.9063 1.00394,-1.97008 4.23189,-2.64449 5.05865,-4.26732 0.51378,-1.00748 -0.30354,-3.4122 -0.30354,-3.4122 0,0 3.55748,-0.35197 5.05748,-1.64646 1.54488,-1.3311 -1.59213,-4.18583 5.9126,-11.7012 5.38346,-5.39055 14.0681,-8.56181 13.9547,-10.7256 -0.1252,-2.39291 -8.59252,-12.1276 -8.59252,-12.1276 0,0 3.57283,-0.30118 4.69252,-2.49803 1.11969,-2.19803 0.36614,-4.75512 0.36614,-4.75512 l 3.53386,-0.60945 v -16.7598 -0.001 0.001 h 0.001 z"
             style="fill:#ffff00;fill-opacity:1;stroke:none;stroke-width:0.510884;stroke-miterlimit:4;stroke-dasharray:none;stroke-opacity:1" />
          <path
             inkscape:connector-curvature="0"
             id="path4310"
             d="m 446.88854,279.94369 -7.92402,5.60669 4.02165,2.07402 4.02283,2.01024 -0.12047,-9.69094 h -0.002 0.002 v 0 z"
             style="fill:#ffff00;fill-opacity:1;stroke:none;stroke-width:0.510884;stroke-miterlimit:4;stroke-dasharray:none;stroke-opacity:1" />
          <path
             inkscape:connector-curvature="0"
             id="path4308"
             d="m 439.20783,289.26849 c -1.4374,0.0992 -2.70472,0.86575 -3.35079,2.13307 -1.03346,2.02913 -0.0295,4.62638 2.25472,5.78976 2.28543,1.16339 4.93819,0.44409 5.97402,-1.58386 1.03346,-2.02913 0.0283,-4.6252 -2.25591,-5.78976 -0.85748,-0.43701 -1.75748,-0.60827 -2.62087,-0.54921 v 0 h -10e-4 z"
             style="fill:#ffff00;fill-opacity:1;stroke:none;stroke-width:0.510884;stroke-miterlimit:4;stroke-dasharray:none;stroke-opacity:1" />
          <path
             inkscape:connector-curvature="0"
             id="path4306"
             d="m 424.27753,298.59329 c -1.19291,0.0142 -2.05866,0.0555 -2.25472,0.18307 -0.84685,0.54803 0.30472,7.79173 0.0614,13.9547 -0.23032,5.8122 -2.09055,7.44921 -3.10866,9.44646 -0.93898,1.8437 -4.32638,4.02283 -4.32638,4.02283 0,0 2.80276,2.80394 2.80276,2.80394 0,0 1.82362,-2.84055 4.69252,-8.47323 3.38504,-6.64134 3.2752,-18.6756 4.26732,-19.3181 0.86338,-0.55866 7.92283,-2.31614 7.92283,-2.31614 -0.001,0 -6.47835,-0.34961 -10.0547,-0.30354 h -10e-4 v 0 h -0.001 z"
             style="fill:#ffff00;fill-opacity:1;stroke:none;stroke-width:0.510884;stroke-miterlimit:4;stroke-dasharray:none;stroke-opacity:1" />
          <path
             inkscape:connector-curvature="0"
             id="path4304"
             d="m 436.58693,300.23857 c 0,0 -7.42205,1.42323 -8.47205,2.43898 -1.01457,0.98032 -0.56693,11.0327 -4.50945,18.7701 -3.26693,6.41457 -4.87441,8.77559 -4.87441,8.77559 l 2.01024,1.03583 2.01142,0.97559 c 0,0 0.93661,-2.60433 4.20591,-9.02008 3.94134,-7.7374 12.3555,-13.3488 12.5528,-14.7484 0.20433,-1.44331 -2.92441,-8.22638 -2.92441,-8.22638 v -10e-4 0 0 z"
             style="fill:#ffff00;fill-opacity:1;stroke:none;stroke-width:0.510884;stroke-miterlimit:4;stroke-dasharray:none;stroke-opacity:1" />
          <path
             inkscape:connector-curvature="0"
             id="path4302"
             d="m 438.96449,301.21298 c 0,0 2.68701,6.77598 2.74252,7.80118 0.0626,1.17756 -9.71811,8.16732 -13.1031,14.8087 -2.8689,5.63268 -4.08307,8.77677 -4.08307,8.77677 0,0 3.90118,0.60945 3.90118,0.60945 0,0 -0.26929,-4.00866 0.66969,-5.85118 1.01693,-1.99606 1.28504,-4.44213 5.85118,-8.04449 4.84252,-3.81969 11.3894,-7.15984 11.3362,-8.16732 -0.0496,-0.93071 -7.31339,-9.93307 -7.31339,-9.93307 h -0.001 v 0 0 z"
             style="fill:#ffff00;fill-opacity:1;stroke:none;stroke-width:0.510884;stroke-miterlimit:4;stroke-dasharray:none;stroke-opacity:1" />
          <path
             inkscape:connector-curvature="0"
             id="path4300"
             d="m 416.90389,333.14878 c -1.22953,0.13228 -2.12362,0.91299 -2.62087,1.88858 -0.74055,1.45512 -0.33898,3.39921 -6.21732,14.9327 -2.57598,5.0563 -3.61417,7.09016 -6.40039,12.5539 -2.8311,5.55945 -6.94724,13.5909 -6.94724,13.5909 0,0 -1.39843,2.56654 1.2189,3.9 2.61732,1.33228 3.77835,-1.34173 3.77835,-1.34173 0,0 4.11614,-8.03268 6.94724,-13.5909 2.78622,-5.4626 3.82323,-7.55787 6.40039,-12.6154 5.87598,-11.5335 7.67126,-12.3189 8.41063,-13.7728 0.79606,-1.56142 0.60591,-3.66378 -2.01024,-4.99843 -0.9815,-0.49843 -1.82244,-0.62599 -2.55827,-0.54685 v -0.001 l -0.001,0.001 z"
             style="fill:#ffff00;fill-opacity:1;stroke:none;stroke-width:0.510884;stroke-miterlimit:4;stroke-dasharray:none;stroke-opacity:1" />
          <path
             inkscape:connector-curvature="0"
             id="path4298"
             d="m 391.61059,381.23378 c -0.9874,0.0862 -1.76811,0.50433 -2.13189,1.21772 -0.72756,1.43031 0.5185,3.52913 2.80394,4.6937 2.28425,1.1622 4.75748,0.94134 5.48504,-0.4878 0.72756,-1.42913 -0.57874,-3.52913 -2.86417,-4.6937 -1.14213,-0.58228 -2.30315,-0.81732 -3.29055,-0.72992 h -10e-4 -0.001 z"
             style="fill:#ffff00;fill-opacity:1;stroke:none;stroke-width:0.510884;stroke-miterlimit:4;stroke-dasharray:none;stroke-opacity:1" />
          <path
             inkscape:connector-curvature="0"
             id="path4296"
             d="m 388.19839,388.24126 c -1.63701,-0.0779 -3.06732,0.48897 -3.65669,1.64528 -0.94252,1.84843 0.52677,4.50354 3.29173,5.91378 2.76378,1.40787 5.76142,1.05472 6.70394,-0.7937 0.94252,-1.84961 -0.52795,-4.50236 -3.29173,-5.9126 -1.03701,-0.52677 -2.06339,-0.80551 -3.04724,-0.85276 z"
             style="fill:#ffff00;fill-opacity:1;stroke:none;stroke-width:0.510884;stroke-miterlimit:4;stroke-dasharray:none;stroke-opacity:1" />
          <path
             inkscape:connector-curvature="0"
             id="path4294"
             d="m 383.56611,396.95661 c -0.98622,0.0874 -1.76811,0.50433 -2.13307,1.22008 -0.72756,1.42795 0.51969,3.52795 2.80394,4.69134 2.28425,1.16457 4.7563,0.94134 5.48622,-0.48661 0.72756,-1.42913 -0.51968,-3.52913 -2.80394,-4.69252 -1.14331,-0.58347 -2.36457,-0.81851 -3.35079,-0.73229 h -0.002 z"
             style="fill:#ffff00;fill-opacity:1;stroke:none;stroke-width:0.510884;stroke-miterlimit:4;stroke-dasharray:none;stroke-opacity:1" />
          <path
             inkscape:connector-curvature="0"
             id="path4292"
             d="m 381.55587,404.45425 c -1.44331,0.18543 -2.13425,1.64528 -2.13425,1.64528 0,0 -14.8193,29.1661 -20.048,39.4299 -1.67126,3.27874 -8.70472,5.32087 -11.4579,10.7268 -2.77323,5.4378 -0.81614,10.5283 2.80276,12.3709 3.61772,1.8437 8.93031,0.50315 11.7024,-4.93583 2.75315,-5.40472 0.27992,-12.3248 1.94882,-15.6024 5.22992,-10.2661 20.0516,-39.4311 20.0516,-39.4311 0,0 1.45984,-2.56654 -1.15866,-3.9 -0.65433,-0.33307 -1.22362,-0.36614 -1.70551,-0.30354 h -10e-4 v 0 z"
             style="fill:#ffff00;fill-opacity:1;stroke:none;stroke-width:0.510884;stroke-miterlimit:4;stroke-dasharray:none;stroke-opacity:1" />
          <path
             inkscape:connector-curvature="0"
             id="path4290"
             d="m 345.78147,471.61405 c -1.66535,0.0461 -3.14646,0.83268 -3.83976,2.19331 -1.11024,2.17913 0.15945,5.08228 2.86299,6.45945 2.70472,1.37835 5.83819,0.71575 6.94843,-1.4622 1.11024,-2.17913 -0.22087,-5.08346 -2.92441,-6.46063 -1.01457,-0.51732 -2.04921,-0.75827 -3.04724,-0.7311 v 10e-4 0 z"
             style="fill:#ffff00;fill-opacity:1;stroke:none;stroke-width:0.510884;stroke-miterlimit:4;stroke-dasharray:none;stroke-opacity:1" />
          <g
             transform="translate(18.000952,-37.001428)"
             id="g4320"
             style="fill:#ffff00;fill-opacity:1;stroke:none;stroke-width:0.510884;stroke-miterlimit:4;stroke-dasharray:none;stroke-opacity:1">
            <path
               inkscape:connector-curvature="0"
               style="fill:#ffff00;fill-opacity:1;stroke:none;stroke-width:0.510884;stroke-miterlimit:4;stroke-dasharray:none;stroke-opacity:1"
               d="m 322.20354,516.40669 c -1.73386,0.1748 -2.81693,1.20236 -3.16772,1.89094 -0.53386,1.04409 -0.63071,2.47087 0,3.71575 0,0 -4.26496,-1.33346 -5.72835,-0.60945 -1.37835,0.68268 0,20.7827 0,20.7827 0,0 17.0173,-10.7362 16.7587,-12.2504 -0.27402,-1.60984 -3.83976,-4.32756 -3.83976,-4.32756 1.37835,-0.22086 2.45315,-1.08543 2.98701,-2.13189 0.55984,-1.10079 0.63425,-4.24724 -3.23031,-6.21732 -1.44803,-0.73819 -2.73661,-0.95669 -3.77953,-0.85275 v 0 z"
               id="path2206" />
            <g
               id="g4312"
               style="fill:#ffff00;fill-opacity:1;stroke:none;stroke-width:0.510884;stroke-miterlimit:4;stroke-dasharray:none;stroke-opacity:1">
              <path
                 id="path4288"
                 d="m 322.19607,518.35855 c -0.84567,0.0283 -1.54488,0.29646 -1.82717,0.85394 -0.56811,1.1126 0.60472,2.87244 2.62087,3.9 2.01496,1.02638 4.12323,0.9307 4.69252,-0.18308 0.56811,-1.11496 -0.60709,-2.87362 -2.62087,-3.9 -1.00866,-0.51378 -2.01732,-0.70039 -2.86535,-0.67086 z"
                 style="fill:#ffff00;fill-opacity:1;stroke:none;stroke-width:0.510884;stroke-miterlimit:4;stroke-dasharray:none;stroke-opacity:1"
                 inkscape:connector-curvature="0" />
              <path
                 id="path2220"
                 d="m 315.24883,523.84241 v 14.3835 l 11.7024,-8.41063 c 0,0 -1.5874,-2.80276 -5.05984,-4.57087 -3.47244,-1.76811 -6.64252,-1.40197 -6.64252,-1.40197 z"
                 style="fill:#ffff00;fill-opacity:1;stroke:none;stroke-width:0.510884;stroke-miterlimit:4;stroke-dasharray:none;stroke-opacity:1"
                 inkscape:connector-curvature="0" />
            </g>
          </g>
        </g>
      </g>
      <text
         xml:space="preserve"
         style="font-style:normal;font-variant:normal;font-weight:normal;font-stretch:normal;font-size:31.9043px;line-height:1.25;font-family:'TeX Gyre Chorus';-inkscape-font-specification:'TeX Gyre Chorus';fill:#ffff00;fill-opacity:1;stroke:#000000;stroke-width:0.332336;stroke-opacity:1"
         x="22.265167"
         y="39.65416"
         id="text11808"><tspan
           sodipodi:role="line"
           id="tspan11806"
           style="font-style:normal;font-variant:normal;font-weight:500;font-stretch:normal;font-size:31.9043px;font-family:'TeX Gyre Chorus';-inkscape-font-specification:'TeX Gyre Chorus Medium';fill:#ffff00;fill-opacity:1;stroke:#000000;stroke-width:0.332336;stroke-opacity:1"
           x="22.265167"
           y="39.65416">SirGridsAlot</tspan></text>
    </g>
  </g>
</svg>
